<svg id="visual" viewBox="0 0 960 300" width="960" height="300" xmlns="http://www.w3.org/2000/svg" xmlns:xlink="http://www.w3.org/1999/xlink" version="1.1"><rect x="0" y="0" width="960" height="300" fill="#FFFFFF"></rect><path d="M0 200L7 203.3C14 206.7 28 213.3 41.8 214.8C55.7 216.3 69.3 212.7 83.2 213.5C97 214.3 111 219.7 125 219.8C139 220 153 215 167 211.7C181 208.3 195 206.7 208.8 209.8C222.7 213 236.3 221 250.2 220.5C264 220 278 211 292 210.2C306 209.3 320 216.7 334 219.3C348 222 362 220 375.8 218.5C389.7 217 403.3 216 417.2 218.5C431 221 445 227 459 227.7C473 228.3 487 223.7 501 218.3C515 213 529 207 542.8 206.8C556.7 206.7 570.3 212.3 584.2 216.5C598 220.7 612 223.3 626 224.8C640 226.3 654 226.7 668 228.5C682 230.3 696 233.7 709.8 232.3C723.7 231 737.3 225 751.2 221.8C765 218.7 779 218.3 793 221C807 223.7 821 229.3 835 232C849 234.7 863 234.3 876.8 233.2C890.7 232 904.3 230 918.2 228.5C932 227 946 226 953 225.5L960 225L960 301L953 301C946 301 932 301 918.2 301C904.3 301 890.7 301 876.8 301C863 301 849 301 835 301C821 301 807 301 793 301C779 301 765 301 751.2 301C737.3 301 723.7 301 709.8 301C696 301 682 301 668 301C654 301 640 301 626 301C612 301 598 301 584.2 301C570.3 301 556.7 301 542.8 301C529 301 515 301 501 301C487 301 473 301 459 301C445 301 431 301 417.2 301C403.3 301 389.7 301 375.8 301C362 301 348 301 334 301C320 301 306 301 292 301C278 301 264 301 250.2 301C236.3 301 222.7 301 208.8 301C195 301 181 301 167 301C153 301 139 301 125 301C111 301 97 301 83.2 301C69.3 301 55.7 301 41.8 301C28 301 14 301 7 301L0 301Z" fill="#7abfb7"></path><path d="M0 243L7 241.8C14 240.7 28 238.3 41.8 237.2C55.7 236 69.3 236 83.2 234.7C97 233.3 111 230.7 125 234C139 237.3 153 246.7 167 248.8C181 251 195 246 208.8 245.5C222.7 245 236.3 249 250.2 251C264 253 278 253 292 251C306 249 320 245 334 240.3C348 235.7 362 230.3 375.8 229.2C389.7 228 403.3 231 417.2 235.3C431 239.7 445 245.3 459 248.8C473 252.3 487 253.7 501 250.8C515 248 529 241 542.8 238.2C556.7 235.3 570.3 236.7 584.2 238.2C598 239.7 612 241.3 626 243.3C640 245.3 654 247.7 668 244.2C682 240.7 696 231.3 709.8 232.5C723.7 233.7 737.3 245.3 751.2 246.7C765 248 779 239 793 235.7C807 232.3 821 234.7 835 234.8C849 235 863 233 876.8 233.3C890.7 233.7 904.3 236.3 918.2 235.8C932 235.3 946 231.7 953 229.8L960 228L960 301L953 301C946 301 932 301 918.2 301C904.3 301 890.7 301 876.8 301C863 301 849 301 835 301C821 301 807 301 793 301C779 301 765 301 751.2 301C737.3 301 723.7 301 709.8 301C696 301 682 301 668 301C654 301 640 301 626 301C612 301 598 301 584.2 301C570.3 301 556.7 301 542.8 301C529 301 515 301 501 301C487 301 473 301 459 301C445 301 431 301 417.2 301C403.3 301 389.7 301 375.8 301C362 301 348 301 334 301C320 301 306 301 292 301C278 301 264 301 250.2 301C236.3 301 222.7 301 208.8 301C195 301 181 301 167 301C153 301 139 301 125 301C111 301 97 301 83.2 301C69.3 301 55.7 301 41.8 301C28 301 14 301 7 301L0 301Z" fill="#93d4cc"></path><path d="M0 269L7 267C14 265 28 261 41.8 260.7C55.7 260.3 69.3 263.7 83.2 265.2C97 266.7 111 266.3 125 265.2C139 264 153 262 167 259.2C181 256.3 195 252.7 208.8 251.2C222.7 249.7 236.3 250.3 250.2 252C264 253.7 278 256.3 292 258.8C306 261.3 320 263.7 334 263.5C348 263.3 362 260.7 375.8 260.5C389.7 260.3 403.3 262.7 417.2 264.5C431 266.3 445 267.7 459 267.3C473 267 487 265 501 260.7C515 256.3 529 249.7 542.8 246.7C556.7 243.7 570.3 244.3 584.2 244.7C598 245 612 245 626 248.2C640 251.3 654 257.7 668 258.8C682 260 696 256 709.8 253C723.7 250 737.3 248 751.2 249.5C765 251 779 256 793 259.7C807 263.3 821 265.7 835 263C849 260.3 863 252.7 876.8 251.2C890.7 249.7 904.3 254.3 918.2 254C932 253.7 946 248.3 953 245.7L960 243L960 301L953 301C946 301 932 301 918.2 301C904.3 301 890.7 301 876.8 301C863 301 849 301 835 301C821 301 807 301 793 301C779 301 765 301 751.2 301C737.3 301 723.7 301 709.8 301C696 301 682 301 668 301C654 301 640 301 626 301C612 301 598 301 584.2 301C570.3 301 556.7 301 542.8 301C529 301 515 301 501 301C487 301 473 301 459 301C445 301 431 301 417.2 301C403.3 301 389.7 301 375.8 301C362 301 348 301 334 301C320 301 306 301 292 301C278 301 264 301 250.2 301C236.3 301 222.7 301 208.8 301C195 301 181 301 167 301C153 301 139 301 125 301C111 301 97 301 83.2 301C69.3 301 55.7 301 41.8 301C28 301 14 301 7 301L0 301Z" fill="#adeae2"></path><path d="M0 280L7 280.2C14 280.3 28 280.7 41.8 280.3C55.7 280 69.3 279 83.2 276.5C97 274 111 270 125 270.7C139 271.3 153 276.7 167 278C181 279.3 195 276.7 208.8 275.7C222.7 274.7 236.3 275.3 250.2 274.2C264 273 278 270 292 269.7C306 269.3 320 271.7 334 272.2C348 272.7 362 271.3 375.8 270C389.7 268.7 403.3 267.3 417.2 269.7C431 272 445 278 459 280.8C473 283.7 487 283.3 501 282.3C515 281.3 529 279.7 542.8 278.7C556.7 277.7 570.3 277.3 584.2 275.7C598 274 612 271 626 271.2C640 271.3 654 274.7 668 277.7C682 280.7 696 283.3 709.8 284.2C723.7 285 737.3 284 751.2 283.3C765 282.7 779 282.3 793 279.7C807 277 821 272 835 272.7C849 273.3 863 279.7 876.8 282.5C890.7 285.3 904.3 284.7 918.2 281.5C932 278.3 946 272.7 953 269.8L960 267L960 301L953 301C946 301 932 301 918.2 301C904.3 301 890.7 301 876.8 301C863 301 849 301 835 301C821 301 807 301 793 301C779 301 765 301 751.2 301C737.3 301 723.7 301 709.8 301C696 301 682 301 668 301C654 301 640 301 626 301C612 301 598 301 584.2 301C570.3 301 556.7 301 542.8 301C529 301 515 301 501 301C487 301 473 301 459 301C445 301 431 301 417.2 301C403.3 301 389.7 301 375.8 301C362 301 348 301 334 301C320 301 306 301 292 301C278 301 264 301 250.2 301C236.3 301 222.7 301 208.8 301C195 301 181 301 167 301C153 301 139 301 125 301C111 301 97 301 83.2 301C69.3 301 55.7 301 41.8 301C28 301 14 301 7 301L0 301Z" fill="#c7fff8"></path></svg>