<svg xmlns="http://www.w3.org/2000/svg" width="430" height="430" style="width:100%;height:100%;transform:translate3d(0,0,0);content-visibility:visible" viewBox="0 0 430 430"><defs><clipPath id="a"><path d="M0 0h430v430H0z"/></clipPath><clipPath id="c"><path d="M0 0h430v430H0z"/></clipPath><clipPath id="b"><path d="M0 0h430v430H0z"/></clipPath></defs><g fill="none" clip-path="url(#a)"><g clip-path="url(#b)" style="display:block"><path stroke="#121331" stroke-linejoin="round" stroke-width="12" d="M-15 15c-19.33 0-35 15.67-35 35v10H50V50c0-19.33-15.67-35-35-35h-30zm40-50c0 13.807-11.193 25-25 25s-25-11.193-25-25 11.193-25 25-25 25 11.193 25 25z" class="primary" style="display:block" transform="translate(85 315)"/><path stroke="#121331" stroke-linejoin="round" stroke-width="12" d="M-15 15c-19.33 0-35 15.67-35 35v10H50V50c0-19.33-15.67-35-35-35h-30zm40-50c0 13.807-11.193 25-25 25s-25-11.193-25-25 11.193-25 25-25 25 11.193 25 25z" class="primary" style="display:block" transform="translate(215 315)"/><path stroke="#121331" stroke-linejoin="round" stroke-width="12" d="M-15 15c-19.33 0-35 15.67-35 35v10H50V50c0-19.33-15.67-35-35-35h-30zm40-50c0 13.807-11.193 25-25 25s-25-11.193-25-25 11.193-25 25-25 25 11.193 25 25z" class="primary" style="display:block" transform="translate(345 315)"/><path stroke="#121331" stroke-linejoin="round" stroke-width="12" d="M-15 15c-19.33 0-35 15.67-35 35v10H50V50c0-19.33-15.67-35-35-35h-30zm40-50c0 13.807-11.193 25-25 25s-25-11.193-25-25 11.193-25 25-25 25 11.193 25 25z" class="primary" style="display:block" transform="translate(215 85)"/><path stroke="#08A88A" stroke-linecap="round" stroke-linejoin="round" stroke-width="12" d="M0 8.119v-44.738" class="secondary" style="display:block" transform="translate(215 211.792)"/><path stroke="#08A88A" stroke-linecap="round" stroke-linejoin="round" stroke-width="12" d="M-.375-28.619h109.959c11.228 0 20.33 9.102 20.33 20.33v4.408m-260.578 0v-4.408c0-11.228 9.102-20.33 20.33-20.33H-.375" class="secondary" style="display:block" transform="translate(215.329 228.792)"/><path class="secondary" style="display:none"/><path class="secondary" style="display:none"/></g><g clip-path="url(#c)" style="display:none"><path class="primary" style="display:none"/><path class="primary" style="display:none"/><path class="primary" style="display:none"/><path class="primary" style="display:none"/><path class="secondary" style="display:none"/><path class="secondary" style="display:none"/><path class="secondary" style="display:none"/></g></g></svg>