<svg id="visual" viewBox="0 0 960 300" width="960" height="300" xmlns="http://www.w3.org/2000/svg" xmlns:xlink="http://www.w3.org/1999/xlink" version="1.1"><rect x="0" y="0" width="960" height="300" fill="#FFF"></rect><path d="M0 90L32 87C64 84 128 78 192 63C256 48 320 24 384 20.2C448 16.3 512 32.7 576 51.2C640 69.7 704 90.3 768 97C832 103.7 896 96.3 928 92.7L960 89L960 0L928 0C896 0 832 0 768 0C704 0 640 0 576 0C512 0 448 0 384 0C320 0 256 0 192 0C128 0 64 0 32 0L0 0Z" fill="#C7FFF8" stroke-linecap="round" stroke-linejoin="miter"></path></svg>