<?xml version="1.0" encoding="utf-8"?>
<svg id="visual" viewBox="0 0 960 300" width="960" height="300" version="1.1" xmlns="http://www.w3.org/2000/svg">
  <rect width="960" height="300" fill="#FFF" style="transform-origin: 480px 150px;"/>
  <path d="M 0 90 L 32 87 C 64 84 128 78 192 63 C 256 48 320 24 384 20.2 C 448 16.3 512 32.7 576 51.2 C 640 69.7 704 90.3 768 97 C 832 103.7 896 96.3 928 92.7 L 960 89 L 960 0 L 928 0 C 896 0 832 0 768 0 C 704 0 640 0 576 0 C 512 0 448 0 384 0 C 320 0 256 0 192 0 C 128 0 64 0 32 0 L 0 0 L 0 90 Z" fill="#C7FFF8" stroke-linecap="round" stroke-linejoin="miter" style="transform-origin: 480px 49.854px;" transform="matrix(-1, 0, 0, -1, -0.000035, -0.000039)"/>
</svg>
